<?xml version="1.0" encoding="UTF-8"?> <svg xmlns="http://www.w3.org/2000/svg" xmlns:xlink="http://www.w3.org/1999/xlink" id="Layer_1" data-name="Layer 1" viewBox="0 0 405.57 73.9"><defs><style>.cls-1{fill:#21273a;}.cls-2{fill:url(#linear-gradient);}</style><linearGradient id="linear-gradient" x1="68.97" y1="11.6" x2="114.1" y2="11.6" gradientUnits="userSpaceOnUse"><stop offset="0.09" stop-color="#fff"></stop><stop offset="0.92" stop-color="#7e26fd"></stop></linearGradient></defs><path class="cls-1" d="M54.87,49.89H20.77c.09,6,3.6,9.9,9.09,9.9a11.78,11.78,0,0,0,8.72-3.6H53C48.75,64.47,40.83,70.5,29,70.5c-12.69,0-22.77-7.56-22.77-20.61,0-19.26,14.13-28.35,28.61-28.35,12.6,0,21.87,7,21.87,18.63A21.89,21.89,0,0,1,54.87,49.89Zm-12.6-9.45c.09-5.85-4.05-8.19-8.37-8.19a12.27,12.27,0,0,0-11.69,8.19Z"></path><path class="cls-1" d="M54.41,69.24,62.59,22.8H76.45l-.36,6.75H77c3.06-4.5,7.38-7.65,16.38-6.75L90.94,36.39a20.66,20.66,0,0,0-3.33-.18c-8,0-13.41,4.86-14.94,13.32L69.16,69.24Z"></path><polygon class="cls-1" points="87.99 69.24 96.17 22.8 110.93 22.8 102.75 69.24 87.99 69.24"></polygon><path class="cls-1" d="M109.75,49.35c0-16.65,12.06-27.81,24.75-27.81,6.48,0,11.79,2.7,14.22,7h.9L153.76,5h14.76L157.18,69.24H143.32l.09-5.76h-.9a17.17,17.17,0,0,1-14.31,7C119.38,70.5,109.75,64.65,109.75,49.35Zm15.48-.9c0,6.39,3.33,10,8.82,10,7.38,0,13.14-5.4,13.14-14.85,0-6.39-3.33-10-8.82-10C131,33.6,125.23,39,125.23,48.45Z"></path><path class="cls-1" d="M211.88,49.89H177.77c.09,6,3.6,9.9,9.09,9.9a11.78,11.78,0,0,0,8.73-3.6H210c-4.23,8.28-12.15,14.31-24,14.31-12.69,0-22.77-7.56-22.77-20.61,0-19.26,14.13-28.35,28.62-28.35,12.6,0,21.87,7,21.87,18.63A21.89,21.89,0,0,1,211.88,49.89Zm-12.6-9.45c.09-5.85-4.05-8.19-8.37-8.19a12.28,12.28,0,0,0-11.7,8.19Z"></path><path class="cls-1" d="M211.41,69.24,222.75,5h14.76l-4.14,23.58h.9c4.59-5.22,9.45-7,15.84-7,7.47,0,17.19,4.41,14.67,18.63l-5.13,29.07H244.89l4.59-26c1.08-5.94-.45-9.18-6.84-9.18a11.91,11.91,0,0,0-12.06,10.17l-4.41,25Z"></path><path class="cls-1" d="M314.35,49.89H280.24c.09,6,3.6,9.9,9.09,9.9a11.78,11.78,0,0,0,8.73-3.6h14.4c-4.23,8.28-12.15,14.31-24,14.31-12.69,0-22.77-7.56-22.77-20.61,0-19.26,14.13-28.35,28.62-28.35,12.6,0,21.87,7,21.87,18.63A21.89,21.89,0,0,1,314.35,49.89Zm-12.6-9.45c.09-5.85-4.05-8.19-8.37-8.19a12.28,12.28,0,0,0-11.7,8.19Z"></path><path class="cls-1" d="M336.47,29.55h-.9l.36-6.75H322.07l-8.19,46.44h14.76l3.51-19.71c1.34-7.43,5.67-12.08,12.12-13.1a23.76,23.76,0,0,1,8-10.51l.56-3.12C343.85,21.9,339.53,25.05,336.47,29.55Z"></path><path class="cls-1" d="M346.82,49.8c0-18.54,12.6-28.26,30-28.26,13.5,0,23.31,7.47,23.31,20.7,0,18.54-12.6,28.26-30.06,28.26C356.63,70.5,346.82,63,346.82,49.8Zm37.8-6.75c0-6.48-3.69-9.9-8.82-9.9-8.19,0-13.5,5.58-13.5,15.84,0,6.48,3.6,9.9,8.73,9.9C379.22,58.89,384.62,53.31,384.62,43.05Z"></path><polygon class="cls-2" points="71.24 4.96 114.1 4.96 111.82 18.25 68.97 18.25 71.24 4.96"></polygon></svg> 