<svg width="61" height="24" viewBox="0 0 61 24" fill="none" xmlns="http://www.w3.org/2000/svg">
<g clip-path="url(#clip0_916_90333)">
<path d="M59.9924 21.8436H57.7158V16.2807C57.7158 15.4236 57.554 14.7756 57.2302 14.3374C56.9127 13.8992 56.4331 13.6803 55.7918 13.6803C55.1312 13.6803 54.5884 13.928 54.1629 14.4234C53.7373 14.9121 53.5247 15.5313 53.5247 16.2807V21.8436H51.2383V12.0896H53.5247V13.5754H53.5626C53.9183 13.0102 54.3628 12.5846 54.8964 12.299C55.4361 12.0068 56.0395 11.8608 56.7061 11.8608C57.7856 11.8608 58.6017 12.2036 59.1542 12.8895C59.7131 13.5691 59.9924 14.5598 59.9924 15.8618V21.8436Z" fill="#212121"/>
<path d="M42.1953 20.7672L43.3289 19.3004C43.6972 19.6498 44.0909 19.9133 44.5101 20.0911C44.9294 20.2687 45.3707 20.3578 45.8342 20.3578C46.3612 20.3578 46.7646 20.2561 47.0439 20.0529C47.3298 19.8498 47.4726 19.5512 47.4726 19.1576C47.4726 18.8401 47.3488 18.5797 47.1011 18.3763C46.8534 18.1668 46.4566 18.0016 45.9103 17.8812C44.6722 17.6079 43.799 17.2269 43.291 16.7379C42.7893 16.2428 42.5384 15.6299 42.5384 14.8995C42.5384 13.9852 42.8844 13.2516 43.5766 12.699C44.2751 12.1401 45.1676 11.8608 46.2534 11.8608C46.8565 11.8608 47.4218 11.9496 47.949 12.1275C48.4823 12.3054 48.9682 12.5815 49.4064 12.9562L48.3395 14.3756C47.9648 14.096 47.6091 13.8929 47.2726 13.7659C46.9362 13.6326 46.5709 13.5659 46.1773 13.5659C45.6819 13.5659 45.3072 13.6645 45.0532 13.8613C44.8055 14.0518 44.6817 14.3153 44.6817 14.6518C44.6817 14.9756 44.8118 15.2264 45.0722 15.4043C45.3325 15.5759 45.8121 15.7411 46.5106 15.8997C47.5519 16.1284 48.3301 16.4936 48.8444 16.9953C49.365 17.4967 49.6254 18.1447 49.6254 18.9383C49.6254 19.8845 49.2763 20.6434 48.5777 21.2152C47.8855 21.7867 46.9614 22.0723 45.8058 22.0723C45.1006 22.0723 44.4403 21.9643 43.8243 21.7485C43.2082 21.5261 42.6654 21.1991 42.1953 20.7672Z" fill="#212121"/>
<path d="M40.8337 21.8439H38.5476V16.2523C38.5476 15.3632 38.3985 14.7121 38.0999 14.2995C37.8077 13.8866 37.3347 13.6803 36.6804 13.6803C36.0963 13.6803 35.6104 13.9375 35.223 14.4518C34.8357 14.9661 34.6421 15.5948 34.6421 16.3379V21.8439H32.356V16.1379C32.356 15.3187 32.2002 14.7058 31.889 14.2995C31.5778 13.8866 31.1081 13.6803 30.4794 13.6803C29.8759 13.6803 29.3869 13.9248 29.0125 14.4139C28.6378 14.9026 28.4505 15.5506 28.4505 16.3568V21.8439H26.1641V12.0896H28.4505V13.5375H28.4884C28.8185 13.0102 29.2504 12.6007 29.784 12.3085C30.3173 12.01 30.9081 11.8608 31.5557 11.8608C32.2353 11.8608 32.8163 12.0261 33.299 12.3562C33.7815 12.68 34.1309 13.1277 34.3467 13.6992C34.7214 13.0835 35.1817 12.6229 35.7279 12.318C36.2805 12.0134 36.9155 11.8608 37.633 11.8608C38.6746 11.8608 39.4685 12.191 40.0144 12.8516C40.5607 13.5056 40.8337 14.49 40.8337 15.8046V21.8439Z" fill="#212121"/>
<path d="M11.0688 18.9463C11.0688 18.9463 8.81174 23.7512 5.34002 23.575C1.86917 23.3996 1.00599 17.287 8.64976 14.4521C8.64976 14.4521 11.8043 15.6757 11.0679 18.9463H11.0688Z" fill="#6B6B6B"/>
<path d="M11.0688 18.9463C11.0688 18.9463 8.81174 23.7512 5.34002 23.575C1.86917 23.3996 1.00599 17.287 8.64976 14.4521C8.64976 14.4521 11.8043 15.6757 11.0679 18.9463H11.0688Z" fill="url(#paint0_radial_916_90333)"/>
<path d="M11.0688 18.9463C11.0688 18.9463 8.81174 23.7512 5.34002 23.575C1.86917 23.3996 1.00599 17.287 8.64976 14.4521C8.64976 14.4521 11.8043 15.6757 11.0679 18.9463H11.0688Z" fill="url(#paint1_radial_916_90333)"/>
<path d="M12.9011 19.0168C12.9011 19.0168 11.9009 23.6164 14.7161 23.5757C16.8389 23.5447 18.1149 20.5273 16.2557 16.0186C16.2557 16.0186 14.6751 15.2667 12.9011 19.0168Z" fill="url(#paint2_radial_916_90333)"/>
<path d="M12.9011 19.0168C12.9011 19.0168 11.9009 23.6164 14.7161 23.5757C16.8389 23.5447 18.1149 20.5273 16.2557 16.0186C16.2557 16.0186 14.6751 15.2667 12.9011 19.0168Z" fill="url(#paint3_radial_916_90333)"/>
<path d="M12.9011 19.0168C12.9011 19.0168 11.9009 23.6164 14.7161 23.5757C16.8389 23.5447 18.1149 20.5273 16.2557 16.0186C16.2557 16.0186 14.6751 15.2667 12.9011 19.0168Z" fill="url(#paint4_radial_916_90333)"/>
<path d="M12.9004 19.0157C12.9004 19.0157 13.8488 7.64627 18.8187 6.62841C21.8949 5.99847 23.2714 7.87437 23.2714 10.2723C23.2714 13.5444 19.8171 15.3383 17.5901 15.9992C15.0885 16.7416 13.7376 17.915 12.9004 19.0166V19.0157Z" fill="url(#paint5_radial_916_90333)"/>
<path d="M12.9004 19.0157C12.9004 19.0157 13.8488 7.64627 18.8187 6.62841C21.8949 5.99847 23.2714 7.87437 23.2714 10.2723C23.2714 13.5444 19.8171 15.3383 17.5901 15.9992C15.0885 16.7416 13.7376 17.915 12.9004 19.0166V19.0157Z" fill="url(#paint6_radial_916_90333)"/>
<path d="M12.9004 19.0157C12.9004 19.0157 13.8488 7.64627 18.8187 6.62841C21.8949 5.99847 23.2714 7.87437 23.2714 10.2723C23.2714 13.5444 19.8171 15.3383 17.5901 15.9992C15.0885 16.7416 13.7376 17.915 12.9004 19.0166V19.0157Z" fill="url(#paint7_radial_916_90333)"/>
<path d="M11.0663 18.9466C11.0663 18.9466 11.6167 17.0263 6.4196 14.3634C1.22151 11.6994 0.61416 8.46523 0.531481 6.60055C0.448771 4.73587 1.00958 3.13473 1.95288 2.23092C3.28902 0.950356 4.50282 0.722254 6.27658 0.874312C8.63443 1.07651 11.1042 3.49075 12.337 7.26675C14.129 12.7553 11.0663 18.9466 11.0663 18.9466Z" fill="url(#paint8_linear_916_90333)"/>
<path d="M11.0663 18.9466C11.0663 18.9466 11.6167 17.0263 6.4196 14.3634C1.22151 11.6994 0.61416 8.46523 0.531481 6.60055C0.448771 4.73587 1.00958 3.13473 1.95288 2.23092C3.28902 0.950356 4.50282 0.722254 6.27658 0.874312C8.63443 1.07651 11.1042 3.49075 12.337 7.26675C14.129 12.7553 11.0663 18.9466 11.0663 18.9466Z" fill="url(#paint9_radial_916_90333)"/>
<path d="M11.0663 18.9466C11.0663 18.9466 11.6167 17.0263 6.4196 14.3634C1.22151 11.6994 0.61416 8.46523 0.531481 6.60055C0.448771 4.73587 1.00958 3.13473 1.95288 2.23092C3.28902 0.950356 4.50282 0.722254 6.27658 0.874312C8.63443 1.07651 11.1042 3.49075 12.337 7.26675C14.129 12.7553 11.0663 18.9466 11.0663 18.9466Z" fill="url(#paint10_radial_916_90333)" fill-opacity="0.2"/>
<path d="M11.0663 18.9466C11.0663 18.9466 11.6167 17.0263 6.4196 14.3634C1.22151 11.6994 0.61416 8.46523 0.531481 6.60055C0.448771 4.73587 1.00958 3.13473 1.95288 2.23092C3.28902 0.950356 4.50282 0.722254 6.27658 0.874312C8.63443 1.07651 11.1042 3.49075 12.337 7.26675C14.129 12.7553 11.0663 18.9466 11.0663 18.9466Z" fill="url(#paint11_radial_916_90333)"/>
<path d="M11.0663 18.9466C11.0663 18.9466 11.6167 17.0263 6.4196 14.3634C1.22151 11.6994 0.61416 8.46523 0.531481 6.60055C0.448771 4.73587 1.00958 3.13473 1.95288 2.23092C3.28902 0.950356 4.50282 0.722254 6.27658 0.874312C8.63443 1.07651 11.1042 3.49075 12.337 7.26675C14.129 12.7553 11.0663 18.9466 11.0663 18.9466Z" fill="url(#paint12_radial_916_90333)"/>
<path d="M11.0663 18.9466C11.0663 18.9466 11.6167 17.0263 6.4196 14.3634C1.22151 11.6994 0.61416 8.46523 0.531481 6.60055C0.448771 4.73587 1.00958 3.13473 1.95288 2.23092C3.28902 0.950356 4.50282 0.722254 6.27658 0.874312C8.63443 1.07651 11.1042 3.49075 12.337 7.26675C14.129 12.7553 11.0663 18.9466 11.0663 18.9466Z" fill="url(#paint13_linear_916_90333)"/>
<path d="M11.0663 18.9466C11.0663 18.9466 11.6167 17.0263 6.4196 14.3634C1.22151 11.6994 0.61416 8.46523 0.531481 6.60055C0.448771 4.73587 1.00958 3.13473 1.95288 2.23092C3.28902 0.950356 4.50282 0.722254 6.27658 0.874312C8.63443 1.07651 11.1042 3.49075 12.337 7.26675C14.129 12.7553 11.0663 18.9466 11.0663 18.9466Z" fill="url(#paint14_radial_916_90333)"/>
<path d="M11.0663 18.9466C11.0663 18.9466 11.6167 17.0263 6.4196 14.3634C1.22151 11.6994 0.61416 8.46523 0.531481 6.60055C0.448771 4.73587 1.00958 3.13473 1.95288 2.23092C3.28902 0.950356 4.50282 0.722254 6.27658 0.874312C8.63443 1.07651 11.1042 3.49075 12.337 7.26675C14.129 12.7553 11.0663 18.9466 11.0663 18.9466Z" fill="url(#paint15_radial_916_90333)" fill-opacity="0.2"/>
<path d="M11.0663 18.9466C11.0663 18.9466 11.6167 17.0263 6.4196 14.3634C1.22151 11.6994 0.61416 8.46523 0.531481 6.60055C0.448771 4.73587 1.00958 3.13473 1.95288 2.23092C3.28902 0.950356 4.50282 0.722254 6.27658 0.874312C8.63443 1.07651 11.1042 3.49075 12.337 7.26675C14.129 12.7553 11.0663 18.9466 11.0663 18.9466Z" fill="url(#paint16_radial_916_90333)"/>
<path d="M11.0663 18.9466C11.0663 18.9466 11.6167 17.0263 6.4196 14.3634C1.22151 11.6994 0.61416 8.46523 0.531481 6.60055C0.448771 4.73587 1.00958 3.13473 1.95288 2.23092C3.28902 0.950356 4.50282 0.722254 6.27658 0.874312C8.63443 1.07651 11.1042 3.49075 12.337 7.26675C14.129 12.7553 11.0663 18.9466 11.0663 18.9466Z" fill="url(#paint17_radial_916_90333)"/>
<path d="M11.0663 18.9466C11.0663 18.9466 11.6167 17.0263 6.4196 14.3634C1.22151 11.6994 0.61416 8.46523 0.531481 6.60055C0.448771 4.73587 1.00958 3.13473 1.95288 2.23092C3.28902 0.950356 4.50282 0.722254 6.27658 0.874312C8.63443 1.07651 11.1042 3.49075 12.337 7.26675C14.129 12.7553 11.0663 18.9466 11.0663 18.9466Z" fill="url(#paint18_radial_916_90333)"/>
</g>
<defs>
<radialGradient id="paint0_radial_916_90333" cx="0" cy="0" r="1" gradientUnits="userSpaceOnUse" gradientTransform="translate(5.00545 26.8489) rotate(-71.1595) scale(13.4715 8.82005)">
<stop offset="0.045" stop-color="#FFC800" stop-opacity="0.784314"/>
<stop offset="0.368273" stop-color="#98BD42"/>
<stop offset="0.587269" stop-color="#52B471"/>
<stop offset="0.767047" stop-color="#018D32"/>
<stop offset="0.878437" stop-color="#006523"/>
</radialGradient>
<radialGradient id="paint1_radial_916_90333" cx="0" cy="0" r="1" gradientUnits="userSpaceOnUse" gradientTransform="translate(5.00545 26.8489) rotate(-71.1595) scale(13.4715 8.82005)">
<stop offset="0.045" stop-color="#FFC800"/>
<stop offset="0.257166" stop-color="#B5BA1E"/>
<stop offset="0.368273" stop-color="#98BD42"/>
<stop offset="0.587269" stop-color="#52B471"/>
<stop offset="0.767047" stop-color="#018D32"/>
<stop offset="0.878437" stop-color="#006523"/>
</radialGradient>
<radialGradient id="paint2_radial_916_90333" cx="0" cy="0" r="1" gradientUnits="userSpaceOnUse" gradientTransform="translate(14.9114 24.0499) rotate(-106.858) scale(7.42626 6.96563)">
<stop stop-color="#FFC800"/>
<stop offset="0.286785" stop-color="#FFB657"/>
<stop offset="0.64175" stop-color="#FF5F3D"/>
<stop offset="1" stop-color="#B43014"/>
</radialGradient>
<radialGradient id="paint3_radial_916_90333" cx="0" cy="0" r="1" gradientUnits="userSpaceOnUse" gradientTransform="translate(14.9417 23.576) rotate(-107.718) scale(7.2719 13.2547)">
<stop stop-color="#FFB657"/>
<stop offset="0.642929" stop-color="#FF835C"/>
<stop offset="0.960593" stop-color="#CA2134"/>
</radialGradient>
<radialGradient id="paint4_radial_916_90333" cx="0" cy="0" r="1" gradientUnits="userSpaceOnUse" gradientTransform="translate(15.1862 15.957) rotate(94.5479) scale(8.4046 7.14811)">
<stop offset="0.706643" stop-color="#FFCD0F" stop-opacity="0"/>
<stop offset="1" stop-color="#FFCD0F"/>
</radialGradient>
<radialGradient id="paint5_radial_916_90333" cx="0" cy="0" r="1" gradientUnits="userSpaceOnUse" gradientTransform="translate(21.501 4.49357) rotate(111.144) scale(13.2544 10.5124)">
<stop offset="0.0661714" stop-color="#BD00FF"/>
<stop offset="1" stop-color="#FF5F3D"/>
</radialGradient>
<radialGradient id="paint6_radial_916_90333" cx="0" cy="0" r="1" gradientUnits="userSpaceOnUse" gradientTransform="translate(13.2309 19.2678) rotate(-72.3499) scale(8.94983 19.2249)">
<stop stop-color="#FF9E3D"/>
<stop offset="1" stop-color="#E23694" stop-opacity="0"/>
</radialGradient>
<radialGradient id="paint7_radial_916_90333" cx="0" cy="0" r="1" gradientUnits="userSpaceOnUse" gradientTransform="translate(14.6955 19.3537) rotate(-91.116) scale(13.2691 15.8636)">
<stop offset="0.0661714" stop-color="#BD00FF"/>
<stop offset="1" stop-color="#FF5F3D"/>
</radialGradient>
<linearGradient id="paint8_linear_916_90333" x1="12.2697" y1="18.9463" x2="5.09952" y2="-0.0562295" gradientUnits="userSpaceOnUse">
<stop offset="0.38" stop-color="#0D91E1"/>
<stop offset="0.75" stop-color="#2FA2AA"/>
</linearGradient>
<radialGradient id="paint9_radial_916_90333" cx="0" cy="0" r="1" gradientUnits="userSpaceOnUse" gradientTransform="translate(9.00887 15.9086) rotate(-90.4465) scale(16.5837 29.3628)">
<stop stop-color="#3DCBFF"/>
<stop offset="1" stop-color="#0D91E1" stop-opacity="0"/>
</radialGradient>
<radialGradient id="paint10_radial_916_90333" cx="0" cy="0" r="1" gradientUnits="userSpaceOnUse" gradientTransform="translate(9.52586 17.5025) rotate(-87.9282) scale(16.6803 28.9341)">
<stop stop-color="white"/>
<stop offset="1" stop-color="#0D91E1" stop-opacity="0"/>
</radialGradient>
<radialGradient id="paint11_radial_916_90333" cx="0" cy="0" r="1" gradientUnits="userSpaceOnUse" gradientTransform="translate(8.75044 -2.65593) rotate(89.3969) scale(20.461 32.46)">
<stop offset="0.015" stop-color="#0A308F"/>
<stop offset="0.205" stop-color="#2253CE"/>
<stop offset="1" stop-color="#2253CE" stop-opacity="0"/>
</radialGradient>
<radialGradient id="paint12_radial_916_90333" cx="0" cy="0" r="1" gradientUnits="userSpaceOnUse" gradientTransform="translate(11.8088 20.4744) rotate(-92.872) scale(12.8951 22.8318)">
<stop stop-color="#3DEE7B"/>
<stop offset="1" stop-color="#0D91E1" stop-opacity="0"/>
</radialGradient>
<linearGradient id="paint13_linear_916_90333" x1="12.2697" y1="18.9463" x2="5.09952" y2="-0.0562295" gradientUnits="userSpaceOnUse">
<stop offset="0.38" stop-color="#0D91E1"/>
<stop offset="0.75" stop-color="#2FA2AA"/>
</linearGradient>
<radialGradient id="paint14_radial_916_90333" cx="0" cy="0" r="1" gradientUnits="userSpaceOnUse" gradientTransform="translate(5.82145 1.30682) rotate(88.1795) scale(17.6259 31.208)">
<stop stop-color="#3DCBFF"/>
<stop offset="1" stop-color="#0D91E1" stop-opacity="0"/>
</radialGradient>
<radialGradient id="paint15_radial_916_90333" cx="0" cy="0" r="1" gradientUnits="userSpaceOnUse" gradientTransform="translate(5.51993 -0.28689) rotate(91.9349) scale(12.757 22.1286)">
<stop stop-color="white"/>
<stop offset="1" stop-color="#0D91E1" stop-opacity="0"/>
</radialGradient>
<radialGradient id="paint16_radial_916_90333" cx="0" cy="0" r="1" gradientUnits="userSpaceOnUse" gradientTransform="translate(6.25219 19.6991) rotate(-88.6872) scale(20.6806 32.8084)">
<stop offset="0.015" stop-color="#0A308F"/>
<stop offset="0.205" stop-color="#2253CE"/>
<stop offset="1" stop-color="#2253CE" stop-opacity="0"/>
</radialGradient>
<radialGradient id="paint17_radial_916_90333" cx="0" cy="0" r="1" gradientUnits="userSpaceOnUse" gradientTransform="translate(8.20056 -0.873006) rotate(94.9679) scale(17.196 27.7394)">
<stop stop-color="#3BD5FF"/>
<stop offset="0.417149" stop-color="#0D91E1"/>
<stop offset="0.743961" stop-color="#2764E7"/>
<stop offset="1" stop-color="#2052CB"/>
</radialGradient>
<radialGradient id="paint18_radial_916_90333" cx="0" cy="0" r="1" gradientUnits="userSpaceOnUse" gradientTransform="translate(9.22424 -3.38819) rotate(91.8001) scale(15.0831 26.7058)">
<stop stop-color="#3DEEDF" stop-opacity="0.7"/>
<stop offset="1" stop-color="#0D91E1" stop-opacity="0"/>
</radialGradient>
<clipPath id="clip0_916_90333">
<rect width="61" height="24" fill="white"/>
</clipPath>
</defs>
</svg>
